<svg width="1920" height="652" viewBox="0 0 1920 652" fill="none" xmlns="http://www.w3.org/2000/svg">
<path opacity="0.2" d="M807.92 65.5357C259.153 -120.979 -110.36 150.14 -125.56 147.737L-222 1072.14C60.1578 1094.09 631.392 1139.34 659.066 1144.73C686.74 1150.11 1627.31 999.873 2094.14 924.081C2080.86 745.738 1987.48 386.723 1890.25 247.724C1801.15 120.336 1666.97 56.0365 1455.75 65.5357C1103.01 81.3991 1260.87 219.484 807.92 65.5357Z" fill="#C4C4C4"/>
<path opacity="0.2" d="M829.78 247.215C281.013 60.6999 -88.4997 331.82 -103.7 329.416L-200.14 1253.82C82.0179 1275.77 653.252 1321.02 680.926 1326.41C708.6 1331.79 1649.17 1181.55 2116 1105.76C2102.72 927.417 2009.34 568.403 1912.11 429.403C1823.01 302.016 1688.83 237.716 1477.61 247.215C1124.87 263.078 1282.73 401.164 829.78 247.215Z" fill="#C4C4C4"/>
<path opacity="0.2" d="M854.847 409.669C316.776 223.154 -45.5356 494.273 -60.4392 491.87L-155 1416.27C121.659 1438.22 681.76 1483.48 708.895 1488.86C736.03 1494.24 1658.27 1344.01 2116 1268.21C2102.98 1089.87 2011.42 730.856 1916.09 591.857C1828.72 464.469 1697.16 400.17 1490.05 409.669C1144.18 425.532 1298.97 563.617 854.847 409.669Z" fill="#C4C4C4"/>
<ellipse opacity="0.5" cx="472.5" cy="203" rx="50.5" ry="50" fill="#264653"/>
<ellipse opacity="0.5" cx="472.5" cy="345" rx="50.5" ry="50" fill="#E63946"/>
<circle opacity="0.5" cx="472.5" cy="487.5" r="50.5" fill="#FFCDB2"/>
<ellipse opacity="0.5" cx="472.5" cy="630" rx="50.5" ry="50" fill="#6A4C93"/>
<ellipse opacity="0.5" cx="615.5" cy="203" rx="50.5" ry="50" fill="#2A9D8F"/>
<ellipse opacity="0.5" cx="615.5" cy="345" rx="50.5" ry="50" fill="#F1FAEE"/>
<circle opacity="0.5" cx="615.5" cy="487.5" r="50.5" fill="#FFB4A2"/>
<ellipse opacity="0.5" cx="615.5" cy="630" rx="50.5" ry="50" fill="#1982C4"/>
<ellipse opacity="0.5" cx="758.5" cy="203" rx="50.5" ry="50" fill="#E9C46A"/>
<ellipse opacity="0.5" cx="1044.5" cy="203" rx="50.5" ry="50" fill="#E76F51"/>
<ellipse opacity="0.5" cx="758.5" cy="345" rx="50.5" ry="50" fill="#A8DADC"/>
<ellipse opacity="0.5" cx="1044.5" cy="345" rx="50.5" ry="50" fill="#1D3557"/>
<circle opacity="0.5" cx="758.5" cy="487.5" r="50.5" fill="#E5989B"/>
<ellipse opacity="0.5" cx="758.5" cy="630" rx="50.5" ry="50" fill="#8AC926"/>
<circle opacity="0.5" cx="1044.5" cy="487.5" r="50.5" fill="#6D6875"/>
<ellipse opacity="0.5" cx="1044.5" cy="630" rx="50.5" ry="50" fill="#FF595E"/>
<ellipse opacity="0.5" cx="901.5" cy="203" rx="50.5" ry="50" fill="#F4A261"/>
<ellipse opacity="0.5" cx="901.5" cy="345" rx="50.5" ry="50" fill="#457B9D"/>
<circle opacity="0.5" cx="901.5" cy="487.5" r="50.5" fill="#B5838D"/>
<ellipse opacity="0.5" cx="901.5" cy="630" rx="50.5" ry="50" fill="#FFCA3A"/>
</svg>
