<svg width="1920" height="712" viewBox="0 0 1920 712" fill="none" xmlns="http://www.w3.org/2000/svg">
<path opacity="0.2" d="M807.92 68.1765C259.153 -125.854 -110.36 156.19 -125.56 153.69L-222 1115.34C60.1578 1138.18 631.392 1185.25 659.066 1190.85C686.74 1196.45 1627.31 1040.16 2094.14 961.317C2080.86 775.788 1987.48 402.307 1890.25 257.706C1801.15 125.185 1666.97 58.2946 1455.75 68.1765C1103.01 84.6791 1260.87 228.329 807.92 68.1765Z" fill="#C4C4C4"/>
<path opacity="0.2" d="M829.78 257.176C281.013 63.1458 -88.4997 345.19 -103.7 342.69L-200.14 1304.34C82.0179 1327.18 653.252 1374.25 680.926 1379.85C708.6 1385.45 1649.17 1229.16 2116 1150.32C2102.72 964.788 2009.34 591.307 1912.11 446.706C1823.01 314.185 1688.83 247.295 1477.61 257.176C1124.87 273.679 1282.73 417.329 829.78 257.176Z" fill="#C4C4C4"/>
<path opacity="0.2" d="M829.78 426.176C281.013 232.146 -88.4997 514.19 -103.7 511.69L-200.14 1473.34C82.0179 1496.18 653.252 1543.25 680.926 1548.85C708.6 1554.45 1649.17 1398.16 2116 1319.32C2102.72 1133.79 2009.34 760.307 1912.11 615.706C1823.01 483.185 1688.83 416.295 1477.61 426.176C1124.87 442.679 1282.73 586.329 829.78 426.176Z" fill="#C4C4C4"/>
</svg>
